<svg width="40" height="39" viewBox="0 0 40 39" fill="none" xmlns="http://www.w3.org/2000/svg">
<g clip-path="url(#clip0_7_498)">
<path d="M25.5746 19.3252C25.5746 20.8586 24.9605 22.3293 23.8673 23.4136C22.7741 24.4979 21.2914 25.107 19.7453 25.107C18.1993 25.107 16.7166 24.4979 15.6234 23.4136C14.5302 22.3293 13.916 20.8586 13.916 19.3252C13.916 18.9956 13.951 18.6738 14.0112 18.3616H11.9729V26.0649C11.9729 26.6006 12.4101 27.0343 12.9503 27.0343H26.5423C26.8012 27.0338 27.0493 26.9314 27.2322 26.7497C27.415 26.5679 27.5177 26.3216 27.5177 26.0649V18.3616H25.4794C25.5397 18.6738 25.5746 18.9956 25.5746 19.3252ZM19.7453 23.1797C20.2558 23.1796 20.7612 23.0798 21.2328 22.8859C21.7044 22.692 22.1328 22.4079 22.4937 22.0498C22.8546 21.6917 23.1408 21.2666 23.336 20.7988C23.5312 20.331 23.6317 19.8296 23.6315 19.3233C23.6314 18.817 23.5307 18.3156 23.3353 17.8479C23.1398 17.3802 22.8534 16.9552 22.4923 16.5973C22.1313 16.2394 21.7027 15.9555 21.231 15.7618C20.7593 15.5682 20.2538 15.4686 19.7434 15.4687C18.7124 15.469 17.7238 15.8754 16.995 16.5987C16.2662 17.3219 15.8569 18.3027 15.8572 19.3252C15.8574 20.3477 16.2672 21.3283 16.9964 22.0512C17.7256 22.774 18.7144 23.18 19.7453 23.1797ZM24.4088 15.2779H26.7386C26.8933 15.2779 27.0418 15.2171 27.1514 15.1087C27.2611 15.0003 27.3229 14.8533 27.3234 14.6997V12.3889C27.3234 12.2351 27.2618 12.0875 27.1521 11.9787C27.0424 11.87 26.8937 11.8088 26.7386 11.8088H24.4088C24.2537 11.8088 24.1049 11.87 23.9952 11.9787C23.8855 12.0875 23.8239 12.2351 23.8239 12.3889V14.6997C23.8258 15.0177 24.0882 15.2779 24.4088 15.2779Z" fill="white"/>
<path d="M19.7434 0.823486C14.7961 0.823486 10.0514 2.77278 6.55317 6.24254C3.05491 9.7123 1.0896 14.4183 1.0896 19.3253C1.0896 24.2323 3.05491 28.9383 6.55317 32.408C10.0514 35.8778 14.7961 37.8271 19.7434 37.8271C22.1931 37.8271 24.6187 37.3485 26.8819 36.4187C29.1451 35.4889 31.2015 34.1261 32.9336 32.408C34.6658 30.69 36.0398 28.6504 36.9773 26.4056C37.9147 24.1609 38.3972 21.755 38.3972 19.3253C38.3972 16.8956 37.9147 14.4897 36.9773 12.245C36.0398 10.0002 34.6658 7.96059 32.9336 6.24254C31.2015 4.52449 29.1451 3.16166 26.8819 2.23185C24.6187 1.30205 22.1931 0.823486 19.7434 0.823486ZM29.4589 26.8205C29.4589 27.998 28.4874 28.9617 27.3001 28.9617H12.1867C10.9994 28.9617 10.0279 27.998 10.0279 26.8205V11.8301C10.0279 10.6526 10.9994 9.68894 12.1867 9.68894H27.3001C28.4874 9.68894 29.4589 10.6526 29.4589 11.8301V26.8205Z" fill="white"/>
</g>
<defs>
<clipPath id="clip0_7_498">
<rect width="38.8621" height="38.5454" fill="white" transform="translate(0.310059 0.0522461)"/>
</clipPath>
</defs>
</svg>
