<svg width="33" height="33" viewBox="0 0 33 33" fill="none" xmlns="http://www.w3.org/2000/svg">
<path d="M28.782 11.2836L20.9261 10.1419L17.4143 3.02238C17.3184 2.82745 17.1606 2.66965 16.9656 2.57374C16.4768 2.3324 15.8827 2.53351 15.6383 3.02238L12.1265 10.1419L4.27058 11.2836C4.05399 11.3145 3.85597 11.4167 3.70436 11.5714C3.52107 11.7597 3.42007 12.0132 3.42355 12.276C3.42703 12.5388 3.53471 12.7895 3.72292 12.973L9.40677 18.5145L8.06393 26.3395C8.03244 26.5215 8.05259 26.7087 8.12208 26.8799C8.19157 27.051 8.30763 27.1993 8.4571 27.3078C8.60656 27.4164 8.78346 27.4809 8.96772 27.494C9.15198 27.5072 9.33624 27.4684 9.49959 27.3822L16.5263 23.6878L23.553 27.3822C23.7448 27.4843 23.9676 27.5183 24.1811 27.4812C24.7194 27.3884 25.0814 26.8778 24.9886 26.3395L23.6458 18.5145L29.3296 12.973C29.4843 12.8214 29.5864 12.6233 29.6174 12.4068C29.7009 11.8653 29.3234 11.3641 28.782 11.2836Z" fill="black"/>
</svg>
