<svg width="33" height="33" viewBox="0 0 33 33" fill="none" xmlns="http://www.w3.org/2000/svg">
<path d="M28.465 11.2836L20.6091 10.1419L17.0973 3.02238C17.0013 2.82745 16.8436 2.66965 16.6486 2.57374C16.1598 2.3324 15.5657 2.53351 15.3213 3.02238L11.8095 10.1419L3.95356 11.2836C3.73697 11.3145 3.53895 11.4167 3.38734 11.5714C3.20405 11.7597 3.10305 12.0132 3.10653 12.276C3.11001 12.5388 3.21769 12.7895 3.40591 12.973L9.08975 18.5145L7.74692 26.3395C7.71543 26.5215 7.73557 26.7087 7.80506 26.8799C7.87455 27.051 7.99061 27.1993 8.14008 27.3078C8.28955 27.4164 8.46644 27.4809 8.6507 27.494C8.83496 27.5072 9.01922 27.4684 9.18258 27.3822L16.2093 23.6878L23.2359 27.3822C23.4278 27.4843 23.6506 27.5183 23.864 27.4812C24.4024 27.3884 24.7644 26.8778 24.6716 26.3395L23.3288 18.5145L29.0126 12.973C29.1673 12.8214 29.2694 12.6233 29.3004 12.4068C29.3839 11.8653 29.0064 11.3641 28.465 11.2836Z" fill="black"/>
</svg>
