<svg width="33" height="33" viewBox="0 0 33 33" fill="none" xmlns="http://www.w3.org/2000/svg">
<path d="M28.6234 11.2836L20.7675 10.1419L17.2557 3.02238C17.1598 2.82745 17.002 2.66965 16.8071 2.57374C16.3182 2.3324 15.7241 2.53351 15.4797 3.02238L11.9679 10.1419L4.11201 11.2836C3.89542 11.3145 3.6974 11.4167 3.54579 11.5714C3.3625 11.7597 3.2615 12.0132 3.26498 12.276C3.26846 12.5388 3.37614 12.7895 3.56435 12.973L9.2482 18.5145L7.90536 26.3395C7.87387 26.5215 7.89402 26.7087 7.96351 26.8799C8.033 27.051 8.14906 27.1993 8.29853 27.3078C8.44799 27.4164 8.62489 27.4809 8.80915 27.494C8.99341 27.5072 9.17767 27.4684 9.34102 27.3822L16.3677 23.6878L23.3944 27.3822C23.5862 27.4843 23.809 27.5183 24.0225 27.4812C24.5609 27.3884 24.9229 26.8778 24.8301 26.3395L23.4872 18.5145L29.1711 12.973C29.3258 12.8214 29.4279 12.6233 29.4588 12.4068C29.5424 11.8653 29.1649 11.3641 28.6234 11.2836Z" fill="black"/>
</svg>
