<svg width="53" height="52" viewBox="0 0 53 52" fill="none" xmlns="http://www.w3.org/2000/svg">
<g clip-path="url(#clip0_32_106)">
<path d="M44.9208 2.87326C43.3842 2.87326 41.9105 3.4787 40.8239 4.55639C39.7374 5.63408 39.127 7.09574 39.127 8.61983V17.9618L24.6382 17.244V7.18426C24.6382 5.27859 23.875 3.45096 22.5164 2.10345C21.1578 0.755929 19.3151 -0.00109863 17.3938 -0.00109863C15.4725 -0.00109863 13.6298 0.755929 12.2712 2.10345C10.9127 3.45096 10.1494 5.27859 10.1494 7.18426V44.5477C10.1494 48.5203 13.3897 51.732 17.3927 51.732C21.3958 51.732 24.6382 48.5182 24.6382 44.5477V33.0503H39.127V44.5477C39.127 45.3024 39.2769 46.0496 39.568 46.7468C39.8592 47.444 40.2859 48.0775 40.8239 48.6112C41.3619 49.1448 42.0007 49.5681 42.7036 49.8569C43.4065 50.1456 44.1599 50.2943 44.9208 50.2943C45.6816 50.2943 46.435 50.1456 47.138 49.8569C47.8409 49.5681 48.4796 49.1448 49.0176 48.6112C49.5556 48.0775 49.9824 47.444 50.2735 46.7468C50.5647 46.0496 50.7145 45.3024 50.7145 44.5477V8.62198C50.7145 7.0979 50.1041 5.63624 49.0176 4.55855C47.931 3.48086 46.4574 2.87542 44.9208 2.87542" fill="white"/>
<path d="M8.69692 7.18395C8.69692 6.0243 8.93163 4.91852 9.35323 3.90759C8.27342 4.5382 7.37788 5.43695 6.75482 6.51529C6.13177 7.59363 5.8027 8.81437 5.80003 10.0572V43.1119C5.80003 46.1985 7.77331 48.8088 10.5333 49.8241C9.34447 48.3187 8.698 46.4618 8.69692 44.5496V7.18395ZM5.00681 6.78088C3.92715 7.41164 3.03172 8.31043 2.40869 9.38874C1.78565 10.467 1.45649 11.6877 1.45361 12.9305V40.2364C1.45361 42.8618 2.88793 45.1337 5.00681 46.3861C4.57295 45.3474 4.34992 44.234 4.3505 43.1097V10.0572C4.3505 8.89758 4.58521 7.79396 5.00681 6.78088Z" fill="white"/>
<path d="M37.6754 8.6218C37.6754 7.11726 38.147 5.72481 38.9446 4.56946C37.7456 4.91502 36.6918 5.63645 35.9408 6.62575C35.1898 7.61505 34.782 8.819 34.7785 10.0574V16.3083L37.6754 16.4527V8.6218ZM37.6754 34.4878H34.7764V43.1098C34.7764 45.7201 36.541 47.8993 38.9424 48.5999C38.1154 47.4077 37.6728 45.9946 37.6733 44.5475L37.6754 34.4878Z" fill="white"/>
<path d="M30.4307 41.6723C30.4307 44.2826 32.1975 46.4618 34.6032 47.1624C33.7725 45.9716 33.3275 44.558 33.3276 43.11V34.488H30.4307V41.6723ZM33.3297 10.0576C33.3297 8.55521 33.8013 7.1606 34.5989 6.00525C33.3996 6.35092 32.3455 7.07267 31.5944 8.0624C30.8434 9.05214 30.4358 10.2566 30.4328 11.4953V16.093L33.3297 16.2374V10.0576Z" fill="white"/>
</g>
<defs>
<clipPath id="clip0_32_106">
<rect width="52.157" height="51.732" fill="white"/>
</clipPath>
</defs>
</svg>
