<svg width="53" height="52" viewBox="0 0 53 52" fill="none" xmlns="http://www.w3.org/2000/svg">
<g clip-path="url(#clip0_26_17)">
<path d="M44.9208 2.87332C43.3842 2.87332 41.9105 3.47876 40.8239 4.55645C39.7374 5.63414 39.127 7.09581 39.127 8.61989V17.9618L24.6382 17.244V7.18433C24.6382 5.27865 23.875 3.45102 22.5164 2.10351C21.1578 0.75599 19.3151 -0.0010376 17.3938 -0.0010376C15.4725 -0.0010376 13.6298 0.75599 12.2712 2.10351C10.9127 3.45102 10.1494 5.27865 10.1494 7.18433V44.5478C10.1494 48.5204 13.3897 51.7321 17.3927 51.7321C21.3958 51.7321 24.6382 48.5182 24.6382 44.5478V33.0503H39.127V44.5478C39.127 45.3024 39.2769 46.0497 39.568 46.7469C39.8592 47.4441 40.2859 48.0776 40.8239 48.6112C41.3619 49.1448 42.0007 49.5681 42.7036 49.8569C43.4065 50.1457 44.1599 50.2943 44.9208 50.2943C45.6816 50.2943 46.435 50.1457 47.138 49.8569C47.8409 49.5681 48.4796 49.1448 49.0176 48.6112C49.5556 48.0776 49.9824 47.4441 50.2735 46.7469C50.5647 46.0497 50.7145 45.3024 50.7145 44.5478V8.62204C50.7145 7.09796 50.1041 5.6363 49.0176 4.55861C47.931 3.48092 46.4574 2.87548 44.9208 2.87548" fill="white"/>
<path d="M8.69692 7.18395C8.69692 6.0243 8.93163 4.91852 9.35323 3.90759C8.27342 4.5382 7.37788 5.43695 6.75482 6.51529C6.13177 7.59363 5.8027 8.81437 5.80003 10.0572V43.1119C5.80003 46.1985 7.77331 48.8088 10.5333 49.8241C9.34447 48.3187 8.698 46.4618 8.69692 44.5496V7.18395ZM5.00681 6.78088C3.92715 7.41164 3.03172 8.31043 2.40869 9.38874C1.78565 10.467 1.45649 11.6877 1.45361 12.9305V40.2364C1.45361 42.8618 2.88793 45.1337 5.00681 46.3861C4.57295 45.3474 4.34992 44.234 4.3505 43.1097V10.0572C4.3505 8.89758 4.58521 7.79396 5.00681 6.78088Z" fill="white"/>
<path d="M37.6754 8.62186C37.6754 7.11732 38.147 5.72487 38.9446 4.56952C37.7456 4.91509 36.6918 5.63652 35.9408 6.62581C35.1898 7.61511 34.782 8.81906 34.7785 10.0574V16.3084L37.6754 16.4528V8.62186ZM37.6754 34.4879H34.7764V43.1099C34.7764 45.7202 36.541 47.8994 38.9424 48.5999C38.1154 47.4078 37.6728 45.9947 37.6733 44.5476L37.6754 34.4879Z" fill="white"/>
<path d="M30.4307 41.6724C30.4307 44.2827 32.1975 46.4619 34.6032 47.1624C33.7725 45.9717 33.3275 44.5581 33.3276 43.1101V34.4881H30.4307V41.6724ZM33.3297 10.0577C33.3297 8.55527 33.8013 7.16066 34.5989 6.00531C33.3996 6.35098 32.3455 7.07273 31.5944 8.06247C30.8434 9.0522 30.4358 10.2566 30.4328 11.4954V16.0931L33.3297 16.2375V10.0577Z" fill="white"/>
</g>
<defs>
<clipPath id="clip0_26_17">
<rect width="52.157" height="51.732" fill="white"/>
</clipPath>
</defs>
</svg>
