<svg width="33" height="33" viewBox="0 0 33 33" fill="none" xmlns="http://www.w3.org/2000/svg">
<path d="M28.782 11.7164L20.9261 10.5747L17.4143 3.45518C17.3184 3.26025 17.1606 3.10245 16.9656 3.00654C16.4768 2.7652 15.8827 2.96631 15.6383 3.45518L12.1265 10.5747L4.27058 11.7164C4.05399 11.7473 3.85597 11.8495 3.70436 12.0042C3.52107 12.1925 3.42007 12.446 3.42355 12.7088C3.42703 12.9716 3.53471 13.2223 3.72292 13.4058L9.40677 18.9473L8.06393 26.7723C8.03244 26.9543 8.05259 27.1415 8.12208 27.3127C8.19157 27.4838 8.30763 27.6321 8.4571 27.7406C8.60656 27.8492 8.78346 27.9137 8.96772 27.9268C9.15198 27.94 9.33624 27.9012 9.49959 27.815L16.5263 24.1206L23.553 27.815C23.7448 27.9171 23.9676 27.9511 24.1811 27.914C24.7194 27.8212 25.0814 27.3106 24.9886 26.7723L23.6458 18.9473L29.3296 13.4058C29.4843 13.2542 29.5864 13.0561 29.6174 12.8396C29.7009 12.2981 29.3234 11.7969 28.782 11.7164Z" fill="black"/>
</svg>
