<svg width="41" height="41" viewBox="0 0 41 41" fill="none" xmlns="http://www.w3.org/2000/svg">
<path d="M35.7527 14.2443L25.7569 12.7915L21.2886 3.73276C21.1665 3.48474 20.9657 3.28396 20.7177 3.16191C20.0957 2.85484 19.3398 3.11073 19.0288 3.73276L14.5604 12.7915L4.56467 14.2443C4.28909 14.2836 4.03713 14.4135 3.84422 14.6104C3.61101 14.8501 3.4825 15.1726 3.48693 15.507C3.49136 15.8414 3.62836 16.1604 3.86785 16.3938L11.0999 23.4448L9.3913 33.4011C9.35123 33.6328 9.37686 33.871 9.46528 34.0887C9.5537 34.3065 9.70137 34.4952 9.89155 34.6333C10.0817 34.7714 10.3068 34.8535 10.5413 34.8702C10.7757 34.8869 11.0102 34.8376 11.218 34.7279L20.1587 30.0272L29.0994 34.7279C29.3434 34.8578 29.6269 34.9011 29.8986 34.8539C30.5836 34.7358 31.0442 34.0862 30.9261 33.4011L29.2175 23.4448L36.4495 16.3938C36.6464 16.2009 36.7763 15.9489 36.8157 15.6733C36.922 14.9844 36.4417 14.3466 35.7527 14.2443Z" fill="black"/>
</svg>
