<svg width="40" height="39" viewBox="0 0 40 39" fill="none" xmlns="http://www.w3.org/2000/svg">
<g clip-path="url(#clip0_7_501)">
<path d="M19.6284 0.823486C9.32608 0.823486 0.974609 9.1069 0.974609 19.3253C0.974609 29.5437 9.32608 37.8271 19.6284 37.8271C29.9308 37.8271 38.2822 29.5437 38.2822 19.3253C38.2822 9.1069 29.9308 0.823486 19.6284 0.823486ZM24.047 13.609H21.2431C20.9109 13.609 20.5417 14.0426 20.5417 14.6189V16.6271H24.049L23.5185 19.491H20.5417V28.0886H17.2326V19.491H14.2305V16.6271H17.2326V14.9427C17.2326 12.5259 18.9231 10.562 21.2431 10.562H24.047V13.609Z" fill="white"/>
</g>
<defs>
<clipPath id="clip0_7_501">
<rect width="38.8621" height="38.5454" fill="white" transform="translate(0.200195 0.0522461)"/>
</clipPath>
</defs>
</svg>
