<svg width="33" height="33" viewBox="0 0 33 33" fill="none" xmlns="http://www.w3.org/2000/svg">
<path d="M28.465 11.7164L20.6091 10.5747L17.0973 3.45518C17.0013 3.26025 16.8436 3.10245 16.6486 3.00654C16.1598 2.7652 15.5657 2.96631 15.3213 3.45518L11.8095 10.5747L3.95356 11.7164C3.73697 11.7473 3.53895 11.8495 3.38734 12.0042C3.20405 12.1925 3.10305 12.446 3.10653 12.7088C3.11001 12.9716 3.21769 13.2223 3.40591 13.4058L9.08975 18.9473L7.74692 26.7723C7.71543 26.9543 7.73557 27.1415 7.80506 27.3127C7.87455 27.4838 7.99061 27.6321 8.14008 27.7406C8.28955 27.8492 8.46644 27.9137 8.6507 27.9268C8.83496 27.94 9.01922 27.9012 9.18258 27.815L16.2093 24.1206L23.2359 27.815C23.4278 27.9171 23.6506 27.9511 23.864 27.914C24.4024 27.8212 24.7644 27.3106 24.6716 26.7723L23.3288 18.9473L29.0126 13.4058C29.1673 13.2542 29.2694 13.0561 29.3004 12.8396C29.3839 12.2981 29.0064 11.7969 28.465 11.7164Z" fill="black"/>
</svg>
