<svg width="1323" height="922" viewBox="0 0 1323 922" fill="none" xmlns="http://www.w3.org/2000/svg">
<mask id="mask0_32_351" style="mask-type:luminance" maskUnits="userSpaceOnUse" x="33" y="111" width="1216" height="811">
<path d="M1248.47 111.629H33.0117V922H1248.47V111.629Z" fill="white"/>
</mask>
<g mask="url(#mask0_32_351)">
<path style="mix-blend-mode:multiply" opacity="0.51" d="M246.094 251.732C273.147 224.677 273.147 180.812 246.094 153.757C219.041 126.702 175.18 126.702 148.127 153.757C121.075 180.812 121.075 224.677 148.127 251.732C175.18 278.787 219.041 278.787 246.094 251.732Z" fill="url(#paint0_radial_32_351)"/>
<path d="M209.751 252.797C237.473 245.854 254.318 217.75 247.375 190.025C240.432 162.301 212.331 145.454 184.608 152.398C156.886 159.341 140.041 187.445 146.984 215.17C153.926 242.894 182.028 259.741 209.751 252.797Z" fill="#F94343"/>
<path d="M240.434 174.116C241.682 183.59 240.329 193.517 235.969 202.812C223.839 228.687 193.023 239.829 167.15 227.69C158.164 223.476 150.96 217.009 145.888 209.278C148.116 226.183 158.65 241.628 175.229 249.408C201.102 261.539 231.91 250.405 244.048 224.53C251.965 207.641 249.971 188.646 240.434 174.124V174.116Z" fill="#E53939"/>
<path d="M154.371 188.565C165.635 164.538 194.247 154.197 218.264 165.47C232.307 172.058 241.666 184.57 244.777 198.622C243.383 182.058 233.417 166.677 217.292 159.116C193.266 147.852 164.662 158.193 153.399 182.212C148.716 192.196 147.767 202.966 149.98 212.957C149.299 204.854 150.668 196.458 154.363 188.565H154.371Z" fill="#F76363"/>
<path d="M227.299 210.081C227.323 210.04 227.34 209.991 227.364 209.951C231.229 201.709 228.806 191.377 219.852 187.171C212.738 183.833 206.207 187.009 202.552 191.142C203.387 185.697 201.661 178.638 194.547 175.299C185.585 171.102 176.096 175.851 172.231 184.084C172.206 184.124 172.19 184.173 172.174 184.214C171.283 185.98 162.775 204.246 183.364 232.034C217.9 230.089 226.497 211.872 227.291 210.056L227.299 210.081Z" fill="white"/>
<path style="mix-blend-mode:multiply" opacity="0.51" d="M752.184 214.832C787.518 179.495 787.518 122.203 752.184 86.8657C716.85 51.5287 659.562 51.5287 624.228 86.8657C588.894 122.203 588.894 179.495 624.228 214.832C659.562 250.169 716.85 250.169 752.184 214.832Z" fill="url(#paint1_radial_32_351)"/>
<path d="M688.207 218.233C725.53 218.233 755.787 187.974 755.787 150.648C755.787 113.322 725.53 83.063 688.207 83.063C650.884 83.063 620.628 113.322 620.628 150.648C620.628 187.974 650.884 218.233 688.207 218.233Z" fill="#FFCB27"/>
<path d="M723.561 92.9577C730.294 103.468 734.192 115.956 734.192 129.36C734.192 166.685 703.935 196.945 666.613 196.945C653.648 196.945 641.542 193.29 631.251 186.961C643.26 205.713 664.279 218.144 688.199 218.144C725.522 218.144 755.779 187.885 755.779 150.559C755.779 126.199 742.887 104.846 723.553 92.9496L723.561 92.9577Z" fill="#F9C021"/>
<path d="M629.808 157.779C629.808 123.12 657.902 95.0322 692.55 95.0322C712.808 95.0322 730.813 104.635 742.287 119.53C731.453 100.721 711.147 88.0549 687.875 88.0549C653.218 88.0549 625.133 116.151 625.133 150.802C625.133 165.202 629.987 178.468 638.138 189.052C632.839 179.846 629.8 169.165 629.8 157.779H629.808Z" fill="#FFD95F"/>
<path d="M730.222 140.113C729.849 138.962 728.869 138.136 727.669 137.958L702.363 134.279L691.052 111.353C690.517 110.267 689.423 109.586 688.216 109.586C687.008 109.586 685.914 110.267 685.38 111.353L674.068 134.279L648.77 137.958C647.571 138.136 646.59 138.954 646.209 140.113C645.837 141.272 646.145 142.512 647.012 143.363L665.324 161.207L661.006 186.41C660.803 187.609 661.281 188.792 662.27 189.505C663.25 190.218 664.53 190.308 665.6 189.748L688.232 177.852L710.864 189.748C711.334 189.992 711.836 190.113 712.338 190.113C712.995 190.113 713.643 189.91 714.194 189.505C715.174 188.792 715.661 187.609 715.458 186.41L711.139 161.207L729.444 143.363C730.311 142.512 730.619 141.272 730.246 140.113H730.222Z" fill="white"/>
<path style="mix-blend-mode:multiply" opacity="0.51" d="M462.095 351.486C505.967 307.611 505.967 236.475 462.095 192.6C418.223 148.724 347.093 148.724 303.221 192.6C259.35 236.475 259.35 307.611 303.221 351.486C347.093 395.362 418.223 395.362 462.095 351.486Z" fill="url(#paint2_radial_32_351)"/>
<path d="M441.923 331.149C474.694 298.375 474.694 245.239 441.923 212.465C409.152 179.691 356.02 179.691 323.249 212.465C290.478 245.239 290.478 298.375 323.249 331.149C356.02 363.922 409.152 363.922 441.923 331.149Z" fill="#FFCB27"/>
<path d="M404.788 190.778C416.448 200.98 425.426 214.53 430.061 230.51C442.977 275.024 417.364 321.58 372.854 334.489C357.393 338.978 341.689 338.808 327.233 334.821C348.042 353.03 377.407 360.575 405.93 352.293C450.44 339.375 476.046 292.82 463.138 248.314C454.71 219.262 431.949 198.265 404.78 190.77L404.788 190.778Z" fill="#F9C021"/>
<path d="M315.419 300.518C303.427 259.189 327.209 215.972 368.527 203.979C392.682 196.969 417.477 202.188 436.317 215.98C416.886 197.301 388.29 189.222 360.545 197.277C319.22 209.27 295.445 252.496 307.438 293.816C312.421 310.988 322.793 325.121 336.187 334.926C326.674 325.785 319.365 314.1 315.427 300.518H315.419Z" fill="#FFD95F"/>
<path d="M429.04 244.708C428.189 243.46 426.738 242.82 425.247 243.022L393.8 247.39L372.375 223.962C371.354 222.852 369.823 222.423 368.38 222.836C366.93 223.257 365.868 224.44 365.609 225.923L360.05 257.179L331.155 270.316C329.786 270.94 328.902 272.26 328.854 273.768C328.805 275.275 329.599 276.653 330.936 277.366L358.94 292.317L362.506 323.865C362.676 325.364 363.664 326.612 365.082 327.123C366.5 327.633 368.056 327.301 369.142 326.256L392.009 304.238L423.116 310.591C423.757 310.721 424.405 310.688 425.004 310.518C425.782 310.291 426.487 309.821 427.006 309.149C427.93 307.957 428.1 306.377 427.435 305.016L413.563 276.458L429.218 248.841C429.963 247.528 429.899 245.94 429.048 244.692L429.04 244.708Z" fill="white"/>
<path style="mix-blend-mode:multiply" opacity="0.51" d="M127.826 220.494C173.267 220.494 210.104 183.654 210.104 138.209C210.104 92.764 173.267 55.9237 127.826 55.9237C82.3846 55.9237 45.5474 92.764 45.5474 138.209C45.5474 183.654 82.3846 220.494 127.826 220.494Z" fill="url(#paint3_radial_32_351)"/>
<path d="M171.286 181.485C195.285 157.483 195.285 118.57 171.286 94.569C147.287 70.568 108.377 70.568 84.3775 94.569C60.3784 118.57 60.3784 157.484 84.3775 181.485C108.377 205.486 147.287 205.486 171.286 181.485Z" fill="#FFCB27"/>
<path d="M159.978 85.5671C166.096 95.1214 169.645 106.483 169.645 118.671C169.645 152.617 142.127 180.129 108.192 180.129C96.402 180.129 85.39 176.807 76.0391 171.053C86.962 188.103 106.077 199.408 127.826 199.408C161.769 199.408 189.279 171.888 189.279 137.949C189.279 115.794 177.554 96.3774 159.978 85.5671Z" fill="#F9C021"/>
<path d="M74.7265 144.513C74.7265 112.998 100.275 87.4471 131.788 87.4471C150.206 87.4471 166.583 96.1748 177.019 109.724C167.166 92.6173 148.699 81.1019 127.542 81.1019C96.0294 81.1019 70.4805 106.653 70.4805 138.168C70.4805 151.264 74.8966 163.322 82.3109 172.958C77.4896 164.586 74.7265 154.87 74.7265 144.513Z" fill="#FFD95F"/>
<path d="M166.031 128.452C165.691 127.398 164.8 126.653 163.706 126.491L140.693 123.144L130.402 102.293C129.916 101.304 128.927 100.689 127.817 100.689C126.707 100.689 125.727 101.304 125.232 102.293L114.942 123.144L91.937 126.491C90.8431 126.653 89.9518 127.398 89.6114 128.452C89.2711 129.505 89.5466 130.632 90.3407 131.402L106.992 147.633L103.062 170.551C102.876 171.637 103.314 172.723 104.205 173.371C105.096 174.019 106.263 174.1 107.236 173.59L127.817 162.771L148.399 173.59C148.82 173.817 149.282 173.922 149.744 173.922C150.336 173.922 150.927 173.735 151.43 173.371C152.321 172.723 152.758 171.645 152.572 170.551L148.642 147.633L165.294 131.402C166.088 130.632 166.363 129.497 166.023 128.452H166.031Z" fill="white"/>
<path style="mix-blend-mode:multiply" opacity="0.51" d="M1078.19 301.38C1107.77 271.797 1107.77 223.832 1078.19 194.249C1048.6 164.665 1000.64 164.665 971.062 194.249C941.481 223.832 941.481 271.797 971.062 301.38C1000.64 330.964 1048.6 330.964 1078.19 301.38Z" fill="url(#paint4_radial_32_351)"/>
<path d="M1064.68 287.669C1086.78 265.57 1086.78 229.74 1064.68 207.641C1042.58 185.542 1006.75 185.542 984.657 207.641C962.56 229.74 962.56 265.57 984.657 287.669C1006.75 309.768 1042.58 309.768 1064.68 287.669Z" fill="#FFCB27"/>
<path d="M1065.76 208.663C1068.93 218.622 1069.37 229.57 1066.47 240.405C1058.37 270.591 1027.34 288.5 997.161 280.413C986.675 277.601 977.681 272.025 970.729 264.675C976.376 282.447 990.678 297.05 1010.02 302.236C1040.2 310.332 1071.23 292.414 1079.33 262.228C1084.61 242.528 1078.81 222.463 1065.75 208.654L1065.76 208.663Z" fill="#F9C021"/>
<path d="M975.898 240.753C983.41 212.731 1012.22 196.102 1040.24 203.614C1056.62 208.006 1069.11 219.675 1075.15 234.205C1070.47 216.645 1056.79 202.001 1037.98 196.961C1009.96 189.449 981.149 206.077 973.63 234.1C970.51 245.745 971.555 257.52 975.858 267.852C973.565 259.254 973.427 249.959 975.898 240.753Z" fill="#FFD95F"/>
<path d="M1060.92 248.241C1060.87 247.228 1060.26 246.345 1059.33 245.948L1039.66 237.487L1035.48 216.491C1035.29 215.494 1034.55 214.708 1033.57 214.449C1032.59 214.189 1031.56 214.497 1030.89 215.259L1016.76 231.345L995.507 228.833C994.494 228.711 993.522 229.165 992.971 230.024C992.42 230.875 992.396 231.953 992.914 232.82L1003.85 251.223L994.891 270.664C994.47 271.588 994.6 272.649 995.24 273.444C995.88 274.23 996.893 274.586 997.881 274.359L1018.76 269.643L1034.48 284.173C1034.81 284.473 1035.19 284.683 1035.6 284.789C1036.13 284.927 1036.7 284.902 1037.24 284.7C1038.19 284.335 1038.83 283.484 1038.93 282.471L1040.9 261.158L1059.58 250.696C1060.46 250.202 1060.98 249.262 1060.93 248.241H1060.92Z" fill="white"/>
<path style="mix-blend-mode:multiply" opacity="0.51" d="M157.764 375.212C193.852 339.122 193.852 280.608 157.764 244.518C121.677 208.427 63.1682 208.427 27.081 244.518C-9.00627 280.608 -9.00627 339.122 27.081 375.212C63.1682 411.302 121.677 411.302 157.764 375.212Z" fill="url(#paint5_radial_32_351)"/>
<path d="M141.158 358.489C168.116 331.529 168.116 287.818 141.158 260.858C114.201 233.898 70.4934 233.898 43.5356 260.858C16.5778 287.818 16.5778 331.529 43.5356 358.489C70.4934 385.449 114.201 385.449 141.158 358.489Z" fill="#4A85D3"/>
<path d="M105.405 241.807C115.615 249.432 123.839 259.967 128.66 272.787C142.087 308.468 124.042 348.281 88.364 361.709C75.9745 366.369 63.0825 367.236 50.9766 364.886C69.2003 378.492 93.7606 382.811 116.627 374.205C152.305 360.777 170.351 320.972 156.924 285.283C148.164 261.993 128.158 246.223 105.405 241.807Z" fill="#407EC1"/>
<path d="M39.0972 337.495C26.6347 304.367 43.3837 267.406 76.5089 254.943C95.8752 247.658 116.538 250.356 132.866 260.47C115.744 246.385 91.7751 241.58 69.5322 249.951C36.407 262.414 19.658 299.375 32.1204 332.503C37.2983 346.272 46.7059 357.204 58.3095 364.392C49.9309 357.495 43.1892 348.379 39.0891 337.495H39.0972Z" fill="#5B9ADD"/>
<path d="M123.831 280.388L113.532 284.262L109.359 285.834L101.41 288.824C100.842 289.035 100.21 288.662 100.154 288.055C99.8458 284.473 98.606 280.931 97.3582 277.617C96.6694 275.786 95.9726 273.67 95.0164 271.742C94.044 269.781 92.7962 268.006 91.0135 266.904C89.0364 265.68 86.5649 265.145 84.3528 265.98C79.2317 267.909 80.3094 273.233 81.3628 277.479C82.5944 282.431 84.215 287.422 83.7613 292.585C83.4453 296.199 82.3513 299.61 79.572 302.131C77.4328 304.067 75.877 305.534 73.4218 307.05C73.0409 307.285 72.8789 307.747 73.0328 308.168L85.5115 341.336C85.6898 341.823 86.2327 342.066 86.7108 341.879L95.8834 338.427C96.1589 338.322 96.4668 338.362 96.718 338.524C99.4407 340.275 102.925 340.753 106.182 339.529L120.452 334.157L130.816 330.259L134.924 328.711C139.121 327.131 141.26 322.406 139.68 318.208C139.275 317.123 138.627 316.191 137.817 315.461C137.501 315.17 137.428 314.691 137.647 314.319C138.732 312.495 138.676 309.286 137.873 307.155L137.541 306.28C137.136 305.194 136.488 304.262 135.677 303.533C135.361 303.241 135.289 302.763 135.507 302.39C136.593 300.567 136.885 298.281 136.083 296.15L135.75 295.275C135.345 294.189 134.697 293.257 133.887 292.528C133.571 292.236 133.498 291.758 133.717 291.385C134.802 289.562 135.094 287.277 134.292 285.145C132.712 280.948 127.988 278.808 123.79 280.388H123.831Z" fill="white"/>
<path d="M51.0238 311.202L64.5611 306.108C65.7063 305.677 66.9901 306.259 67.421 307.404L81.6664 345.266C82.0973 346.411 81.5154 347.695 80.3703 348.126L66.8329 353.221C65.6878 353.651 64.4039 353.07 63.973 351.924L49.7277 314.062C49.2968 312.917 49.8786 311.633 51.0238 311.202Z" fill="white"/>
<path style="mix-blend-mode:multiply" opacity="0.51" d="M345.82 146.174C370.939 121.053 370.939 80.3228 345.82 55.2015C320.7 30.0801 279.974 30.0801 254.855 55.2015C229.735 80.3229 229.735 121.053 254.855 146.174C279.974 171.295 320.7 171.295 345.82 146.174Z" fill="url(#paint6_radial_32_351)"/>
<path d="M334.334 134.523C353.096 115.76 353.096 85.338 334.334 66.5745C315.572 47.811 285.153 47.8111 266.391 66.5745C247.629 85.338 247.629 115.76 266.391 134.523C285.153 153.287 315.572 153.287 334.334 134.523Z" fill="#4A85D3"/>
<path d="M332.16 64.4569C335.596 72.6336 336.803 81.8637 335.175 91.2478C330.629 117.39 305.744 134.902 279.604 130.348C270.529 128.768 262.49 124.732 256.057 119.052C262.183 133.646 275.391 144.919 292.148 147.828C318.288 152.374 343.172 134.87 347.718 108.727C350.684 91.6611 344.258 75.1376 332.169 64.4569H332.16Z" fill="#407EC1"/>
<path d="M258.593 98.4277C262.815 74.1571 285.916 57.901 310.185 62.1231C324.373 64.5947 335.815 73.5088 342.038 85.3402C336.739 70.8427 324.057 59.4975 307.762 56.6612C283.494 52.4391 260.392 68.6952 256.17 92.9658C254.412 103.055 256.202 112.933 260.619 121.345C258.026 114.246 257.199 106.402 258.593 98.4196V98.4277Z" fill="#5B9ADD"/>
<path d="M329.584 94.1084L322.04 92.7956L318.977 92.2608L313.151 91.2478C312.737 91.1749 312.486 90.7292 312.673 90.3402C313.75 88.0793 314.261 85.5185 314.682 83.0874C314.917 81.7422 315.249 80.2349 315.355 78.7357C315.468 77.2122 315.347 75.713 314.666 74.4245C313.912 72.9901 312.616 71.7989 310.995 71.5153C307.244 70.8589 306.004 74.4407 305.137 77.3581C304.124 80.7616 303.338 84.3272 301.239 87.2689C299.773 89.3272 297.917 90.9885 295.356 91.5152C293.387 91.9204 291.937 92.2527 289.935 92.2932C289.628 92.2932 289.36 92.5201 289.312 92.828L285.082 117.131C285.017 117.488 285.26 117.82 285.608 117.885L292.334 119.052C292.537 119.084 292.707 119.222 292.804 119.408C293.817 121.418 295.737 122.941 298.128 123.355L308.581 125.17L316.173 126.491L319.187 127.018C322.259 127.552 325.216 125.478 325.751 122.398C325.889 121.604 325.832 120.818 325.605 120.089C325.516 119.797 325.646 119.489 325.905 119.343C327.201 118.63 328.295 116.685 328.571 115.129L328.684 114.489C328.822 113.695 328.765 112.909 328.538 112.18C328.449 111.888 328.579 111.58 328.838 111.434C330.135 110.721 331.115 109.457 331.383 107.893L331.496 107.253C331.634 106.458 331.577 105.672 331.35 104.943C331.261 104.651 331.391 104.343 331.65 104.198C332.946 103.484 333.927 102.22 334.194 100.656C334.729 97.5849 332.655 94.6271 329.576 94.0922L329.584 94.1084Z" fill="white"/>
<path d="M284.947 88.5971L275.032 86.8719C274.19 86.7254 273.388 87.2893 273.242 88.1315L268.415 115.875C268.268 116.717 268.832 117.519 269.674 117.665L279.589 119.391C280.432 119.537 281.233 118.973 281.379 118.131L286.206 90.3873C286.353 89.5452 285.789 88.7437 284.947 88.5971Z" fill="white"/>
<path style="mix-blend-mode:multiply" opacity="0.51" d="M1295.11 254.875C1332.27 217.712 1332.27 157.459 1295.11 120.295C1257.95 83.1325 1197.7 83.1324 1160.54 120.295C1123.38 157.458 1123.38 217.712 1160.54 254.875C1197.7 292.038 1257.95 292.038 1295.11 254.875Z" fill="url(#paint7_radial_32_351)"/>
<path d="M1278.18 237.664C1305.94 209.903 1305.94 164.894 1278.18 137.133C1250.42 109.372 1205.41 109.372 1177.66 137.133C1149.9 164.894 1149.9 209.903 1177.66 237.664C1205.41 265.424 1250.42 265.424 1278.18 237.664Z" fill="#F94343"/>
<path d="M1287.34 148.257C1289.06 161.272 1287.19 174.911 1281.2 187.674C1264.54 223.217 1222.21 238.517 1186.67 221.847C1174.33 216.061 1164.43 207.171 1157.46 196.556C1160.53 219.773 1174.99 240.996 1197.77 251.685C1233.31 268.354 1275.63 253.055 1292.3 217.512C1303.18 194.311 1300.43 168.225 1287.34 148.266V148.257Z" fill="#E53939"/>
<path d="M1169.12 168.103C1184.6 135.105 1223.89 120.899 1256.89 136.377C1276.17 145.421 1289.04 162.609 1293.31 181.92C1291.39 159.173 1277.71 138.039 1255.56 127.65C1222.56 112.172 1183.26 126.377 1167.79 159.376C1161.37 173.087 1160.06 187.885 1163.1 201.612C1162.16 190.478 1164.04 178.954 1169.13 168.111L1169.12 168.103Z" fill="#F76363"/>
<path d="M1269.29 197.666C1269.33 197.609 1269.35 197.552 1269.38 197.487C1274.69 186.175 1271.37 171.969 1259.06 166.199C1249.28 161.612 1240.32 165.98 1235.29 171.653C1236.44 164.165 1234.07 154.481 1224.29 149.894C1211.98 144.125 1198.94 150.648 1193.63 161.961C1193.61 162.018 1193.59 162.082 1193.55 162.139C1192.33 164.57 1180.65 189.651 1208.93 227.828C1256.37 225.162 1268.18 200.137 1269.27 197.641L1269.29 197.666Z" fill="white"/>
<path style="mix-blend-mode:multiply" opacity="0.51" d="M1149.46 193.914C1194.9 193.914 1231.74 157.073 1231.74 111.629C1231.74 66.1838 1194.9 29.3435 1149.46 29.3435C1104.02 29.3435 1067.18 66.1838 1067.18 111.629C1067.18 157.073 1104.02 193.914 1149.46 193.914Z" fill="url(#paint8_radial_32_351)"/>
<path d="M1149.46 172.909C1183.4 172.909 1210.91 145.393 1210.91 111.45C1210.91 77.5077 1183.4 49.9918 1149.46 49.9918C1115.52 49.9918 1088 77.5077 1088 111.45C1088 145.393 1115.52 172.909 1149.46 172.909Z" fill="#FFCB27"/>
<path d="M1181.61 58.9869C1187.73 68.5412 1191.28 79.9026 1191.28 92.0905C1191.28 126.037 1163.76 153.549 1129.82 153.549C1118.03 153.549 1107.02 150.227 1097.67 144.473C1108.59 161.523 1127.71 172.828 1149.46 172.828C1183.4 172.828 1210.91 145.308 1210.91 111.369C1210.91 89.2137 1199.19 69.7972 1181.61 58.9869Z" fill="#F9C021"/>
<path d="M1096.36 117.933C1096.36 86.4179 1121.91 60.8669 1153.42 60.8669C1171.84 60.8669 1188.21 69.5946 1198.65 83.144C1188.8 66.0371 1170.33 54.5217 1149.17 54.5217C1117.66 54.5217 1092.11 80.0727 1092.11 111.588C1092.11 124.684 1096.53 136.742 1103.94 146.377C1099.12 138.006 1096.36 128.29 1096.36 117.933Z" fill="#FFD95F"/>
<path d="M1187.66 101.872C1187.32 100.818 1186.43 100.073 1185.34 99.9106L1162.33 96.5638L1152.03 75.7129C1151.55 74.7243 1150.56 74.1084 1149.45 74.1084C1148.34 74.1084 1147.36 74.7243 1146.86 75.7129L1136.57 96.5638L1113.57 99.9106C1112.48 100.073 1111.58 100.818 1111.24 101.872C1110.9 102.925 1111.18 104.052 1111.97 104.821L1128.62 121.053L1124.69 143.971C1124.51 145.056 1124.95 146.142 1125.84 146.791C1126.73 147.439 1127.9 147.52 1128.87 147.009L1149.45 136.191L1170.03 147.009C1170.45 147.236 1170.91 147.342 1171.38 147.342C1171.97 147.342 1172.56 147.155 1173.06 146.791C1173.95 146.142 1174.39 145.065 1174.2 143.971L1170.27 121.053L1186.93 104.821C1187.72 104.052 1188 102.917 1187.66 101.872H1187.66Z" fill="white"/>
<path style="mix-blend-mode:multiply" opacity="0.51" d="M1233.29 386.98C1259.28 360.982 1259.28 318.831 1233.29 292.833C1207.29 266.835 1165.14 266.835 1139.15 292.833C1113.15 318.831 1113.15 360.982 1139.15 386.98C1165.14 412.978 1207.29 412.978 1233.29 386.98Z" fill="url(#paint9_radial_32_351)"/>
<path d="M1221.36 374.927C1240.78 355.508 1240.78 324.024 1221.36 304.606C1201.94 285.187 1170.46 285.187 1151.04 304.606C1131.63 324.024 1131.63 355.508 1151.04 374.927C1170.46 394.345 1201.94 394.345 1221.36 374.927Z" fill="#4A85D3"/>
<path d="M1209.11 295.567C1214.61 302.925 1218.12 311.888 1218.83 321.726C1220.79 349.116 1200.18 372.917 1172.79 374.886C1163.27 375.567 1154.2 373.524 1146.31 369.424C1156.12 382.552 1172.19 390.567 1189.75 389.31C1217.13 387.349 1237.75 363.549 1235.79 336.15C1234.51 318.273 1223.92 303.281 1209.1 295.575L1209.11 295.567Z" fill="#407EC1"/>
<path d="M1143.72 348.071C1141.9 322.641 1161.04 300.542 1186.46 298.719C1201.32 297.649 1215.05 303.751 1224.26 314.076C1215.32 300.842 1199.74 292.617 1182.67 293.841C1157.24 295.664 1138.1 317.763 1139.93 343.192C1140.69 353.759 1144.94 363.241 1151.49 370.583C1147.12 364.108 1144.33 356.426 1143.73 348.071H1143.72Z" fill="#5B9ADD"/>
<path d="M1213.93 325.988L1206.02 326.555L1202.82 326.782L1196.71 327.22C1196.28 327.252 1195.92 326.863 1196 326.434C1196.52 323.897 1196.39 321.199 1196.21 318.654C1196.11 317.244 1196.07 315.648 1195.8 314.116C1195.53 312.56 1195.04 311.085 1194.02 309.959C1192.91 308.711 1191.31 307.836 1189.62 307.957C1185.69 308.241 1185.34 312.139 1185.19 315.283C1185.03 318.954 1185.13 322.738 1183.76 326.207C1182.8 328.638 1181.34 330.769 1178.91 331.944C1177.04 332.844 1175.66 333.541 1173.66 334.084C1173.35 334.165 1173.14 334.456 1173.17 334.772L1174.99 360.234C1175.01 360.607 1175.34 360.883 1175.71 360.858L1182.75 360.356C1182.96 360.34 1183.17 360.429 1183.31 360.599C1184.84 362.366 1187.14 363.411 1189.65 363.233L1200.6 362.447L1208.56 361.879L1211.71 361.653C1214.93 361.418 1217.38 358.597 1217.15 355.372C1217.09 354.537 1216.83 353.768 1216.43 353.087C1216.27 352.819 1216.32 352.479 1216.54 352.268C1217.67 351.231 1218.28 349.003 1218.16 347.366L1218.11 346.693C1218.06 345.858 1217.8 345.089 1217.39 344.408C1217.23 344.14 1217.28 343.8 1217.51 343.589C1218.63 342.552 1219.3 341.037 1219.18 339.4L1219.14 338.727C1219.08 337.892 1218.82 337.123 1218.41 336.45C1218.25 336.183 1218.3 335.842 1218.53 335.632C1219.65 334.594 1220.32 333.079 1220.21 331.442C1219.97 328.225 1217.15 325.777 1213.93 326.004L1213.93 325.988Z" fill="white"/>
<path d="M1167.73 331.671L1157.34 332.416C1156.46 332.479 1155.79 333.247 1155.85 334.131L1157.94 363.189C1158 364.073 1158.77 364.738 1159.65 364.675L1170.04 363.93C1170.92 363.867 1171.59 363.099 1171.52 362.215L1169.44 333.157C1169.38 332.273 1168.61 331.608 1167.73 331.671Z" fill="white"/>
<path style="mix-blend-mode:multiply" opacity="0.51" d="M677.27 246.389C687.411 202.458 660.022 158.622 616.094 148.48C572.167 138.338 528.335 165.729 518.194 209.66C508.052 253.591 535.441 297.427 579.369 307.569C623.297 317.711 667.128 290.32 677.27 246.389Z" fill="url(#paint10_radial_32_351)"/>
<path d="M657.885 237.279C663.095 204.006 640.347 172.808 607.077 167.598C573.807 162.388 542.612 185.137 537.402 218.41C532.192 251.683 554.94 282.88 588.21 288.09C621.48 293.301 652.675 270.552 657.885 237.279Z" fill="#4A85D3"/>
<path d="M609.187 167.909C618.206 174.643 625.474 183.954 629.728 195.275C641.583 226.799 625.652 261.961 594.131 273.824C583.184 277.941 571.8 278.703 561.104 276.628C577.204 288.646 598.904 292.463 619.097 284.862C650.618 273.006 666.548 237.836 654.694 206.312C646.955 185.737 629.282 171.807 609.179 167.909H609.187Z" fill="#407EC1"/>
<path d="M550.61 252.431C539.598 223.168 554.394 190.518 583.663 179.505C600.768 173.071 619.024 175.453 633.448 184.392C618.319 171.953 597.154 167.706 577.504 175.105C548.244 186.118 533.448 218.768 544.452 248.03C549.03 260.186 557.336 269.846 567.586 276.199C560.18 270.113 554.224 262.058 550.61 252.439V252.431Z" fill="#5B9ADD"/>
<path d="M625.465 201.985L616.365 205.405L612.678 206.791L605.653 209.432C605.151 209.619 604.592 209.286 604.543 208.752C604.276 205.591 603.174 202.455 602.072 199.53C601.464 197.909 600.848 196.045 600.005 194.335C599.146 192.601 598.044 191.037 596.472 190.064C594.722 188.987 592.542 188.517 590.59 189.246C586.068 190.948 587.016 195.656 587.948 199.4C589.034 203.776 590.468 208.184 590.071 212.747C589.787 215.94 588.831 218.954 586.368 221.183C584.48 222.893 583.102 224.189 580.939 225.526C580.607 225.737 580.461 226.142 580.599 226.515L591.619 255.81C591.781 256.239 592.251 256.45 592.68 256.288L600.783 253.241C601.026 253.152 601.302 253.184 601.521 253.33C603.927 254.87 607.006 255.299 609.883 254.213L622.491 249.473L631.648 246.029L635.278 244.659C638.981 243.265 640.877 239.092 639.483 235.389C639.119 234.432 638.551 233.606 637.838 232.957C637.555 232.698 637.49 232.277 637.693 231.953C638.657 230.34 638.6 227.504 637.895 225.624L637.603 224.854C637.239 223.897 636.672 223.071 635.959 222.423C635.675 222.163 635.61 221.742 635.813 221.418C636.777 219.805 637.028 217.787 636.323 215.907L636.031 215.137C635.667 214.181 635.1 213.355 634.387 212.706C634.103 212.447 634.038 212.026 634.241 211.701C635.205 210.089 635.456 208.071 634.751 206.191C633.357 202.487 629.184 200.591 625.481 201.985H625.465Z" fill="white"/>
<path d="M561.147 229.196L573.107 224.696C574.123 224.313 575.253 224.832 575.633 225.84L588.217 259.288C588.599 260.305 588.081 261.435 587.072 261.814L575.113 266.315C574.096 266.697 572.966 266.179 572.587 265.17L560.002 231.722C559.62 230.706 560.138 229.576 561.147 229.196Z" fill="white"/>
<path style="mix-blend-mode:multiply" opacity="0.51" d="M904.366 125.967C933.181 97.1497 933.182 50.4269 904.366 21.6092C875.551 -7.20858 828.832 -7.20854 800.017 21.6092C771.201 50.4269 771.201 97.1497 800.017 125.967C828.832 154.785 875.551 154.785 904.366 125.967Z" fill="url(#paint11_radial_32_351)"/>
<path d="M891.203 112.603C912.727 91.0769 912.727 56.176 891.203 34.6497C869.678 13.1234 834.78 13.1234 813.256 34.6497C791.731 56.176 791.731 91.077 813.256 112.603C834.78 134.129 869.678 134.129 891.203 112.603Z" fill="#4A85D3"/>
<path d="M889.543 32.9902C893.287 42.4553 894.454 53.0631 892.363 63.7924C886.529 93.6708 857.577 113.16 827.701 107.326C817.329 105.3 808.205 100.478 800.961 93.8085C807.646 110.697 822.523 123.93 841.671 127.674C871.547 133.509 900.499 114.019 906.333 84.1408C910.141 64.6433 903.165 45.5347 889.552 32.9902H889.543Z" fill="#407EC1"/>
<path style="mix-blend-mode:multiply" opacity="0.51" d="M485.567 183.711C526.761 183.711 560.156 150.314 560.156 109.116C560.156 67.919 526.761 34.5218 485.567 34.5218C444.373 34.5218 410.979 67.919 410.979 109.116C410.979 150.314 444.373 183.711 485.567 183.711Z" fill="url(#paint12_radial_32_351)"/>
<path d="M524.911 148.352C546.67 126.592 546.67 91.311 524.911 69.5505C503.153 47.7901 467.875 47.7901 446.116 69.5506C424.358 91.311 424.358 126.592 446.116 148.352C467.875 170.113 503.153 170.113 524.911 148.352Z" fill="#F94343"/>
<path d="M499.642 54.9918C507.461 61.6773 513.522 70.5995 516.723 81.1749C525.636 110.632 508.992 141.734 479.538 150.648C469.312 153.744 458.883 153.752 449.257 151.215C463.21 163.144 482.763 167.933 501.643 162.22C531.098 153.306 547.741 122.204 538.828 92.747C533.01 73.525 517.736 59.7567 499.642 54.9918Z" fill="#E53939"/>
<path d="M441.138 128.533C432.865 101.183 448.317 72.3094 475.665 64.0274C491.644 59.1895 508.15 62.4634 520.758 71.4747C507.712 59.2219 488.67 54.0761 470.309 59.6352C442.961 67.9091 427.508 96.7907 435.782 124.141C439.217 135.502 446.218 144.813 455.18 151.215C448.795 145.219 443.852 137.512 441.13 128.525L441.138 128.533Z" fill="#F76363"/>
<path d="M515.014 93.2494C514.997 93.2008 514.989 93.1521 514.973 93.0954C512.137 83.7194 502.754 77.1878 492.56 80.2672C484.457 82.7227 481.524 89.9674 481.572 95.8993C478.323 90.9317 471.857 86.5314 463.754 88.9868C453.56 92.0743 449.371 102.715 452.215 112.091C452.231 112.139 452.247 112.188 452.264 112.236C452.823 114.295 459.159 135.04 495.655 142.463C521.909 116.037 515.678 95.2591 515.006 93.2413L515.014 93.2494Z" fill="white"/>
<path style="mix-blend-mode:multiply" opacity="0.51" d="M925.999 202.771C972.062 202.771 1009.4 165.426 1009.4 119.36C1009.4 73.2927 972.062 35.9481 925.999 35.9481C879.936 35.9481 842.595 73.2927 842.595 119.36C842.595 165.426 879.936 202.771 925.999 202.771Z" fill="url(#paint13_radial_32_351)"/>
<path d="M970.006 163.24C994.338 138.907 994.338 99.4545 970.006 75.1212C945.675 50.7878 906.226 50.7878 881.895 75.1212C857.563 99.4545 857.563 138.907 881.895 163.24C906.226 187.573 945.675 187.573 970.006 163.24Z" fill="#F94343"/>
<path d="M941.744 58.841C950.487 66.3126 957.269 76.2964 960.851 88.1197C970.817 121.053 952.205 155.834 919.274 165.81C907.832 169.27 896.18 169.287 885.411 166.45C901.018 179.789 922.88 185.137 943.988 178.752C976.919 168.784 995.54 134.003 985.565 101.061C979.058 79.5622 961.985 64.1732 941.752 58.841H941.744Z" fill="#E53939"/>
<path d="M876.328 141.069C867.075 110.494 884.358 78.2008 914.931 68.9382C932.806 63.5249 951.257 67.1878 965.356 77.2688C950.771 63.5655 929.476 57.8118 908.943 64.0274C878.37 73.2818 861.086 105.575 870.34 136.159C874.189 148.865 882.008 159.27 892.032 166.434C884.893 159.724 879.367 151.11 876.32 141.061L876.328 141.069Z" fill="#F76363"/>
<path d="M958.939 101.621C958.923 101.564 958.906 101.507 958.89 101.45C955.714 90.9642 945.228 83.6546 933.827 87.1068C924.768 89.8458 921.487 97.9496 921.535 104.587C917.897 99.0355 910.669 94.1084 901.61 96.8556C890.209 100.308 885.533 112.204 888.702 122.69C888.718 122.747 888.742 122.804 888.758 122.852C889.39 125.154 896.472 148.347 937.279 156.653C966.637 127.107 959.668 103.873 958.915 101.612L958.939 101.621Z" fill="white"/>
<path style="mix-blend-mode:multiply" opacity="0.51" d="M849.759 325.519C875.754 299.521 875.755 257.37 849.759 231.372C823.763 205.374 781.615 205.374 755.619 231.372C729.624 257.37 729.624 299.521 755.619 325.519C781.615 351.517 823.763 351.517 849.759 325.519Z" fill="url(#paint14_radial_32_351)"/>
<path d="M802.736 328.03C830.196 328.03 852.456 305.768 852.456 278.306C852.456 250.844 830.196 228.581 802.736 228.581C775.276 228.581 753.016 250.844 753.016 278.306C753.016 305.768 775.276 328.03 802.736 328.03Z" fill="#F94343"/>
<path d="M841.007 246.474C843.211 255.388 842.976 265.016 839.808 274.351C830.984 300.356 802.753 314.286 776.75 305.461C767.715 302.398 760.147 296.993 754.475 290.145C758.413 306.053 770.113 319.675 786.781 325.332C812.784 334.157 841.015 320.226 849.839 294.221C855.601 277.244 851.663 259.327 841.007 246.466V246.474Z" fill="#E53939"/>
<path d="M760.365 269.473C768.558 245.332 794.771 232.398 818.91 240.591C833.025 245.38 843.3 256.329 847.773 269.416C844.669 253.752 833.52 240.121 817.306 234.627C793.167 226.434 766.953 239.367 758.761 263.508C755.358 273.541 755.601 283.93 758.785 293.233C757.27 285.567 757.675 277.406 760.365 269.473Z" fill="#F76363"/>
<path d="M832.304 282.228C832.32 282.187 832.336 282.139 832.352 282.098C835.164 273.816 831.745 264.205 822.742 261.15C815.587 258.719 809.696 262.455 806.649 266.79C806.868 261.499 804.462 254.951 797.307 252.52C788.304 249.465 779.747 255.016 776.936 263.298C776.919 263.338 776.911 263.387 776.895 263.427C776.239 265.21 770.064 283.557 792.696 307.901C825.465 302.358 831.728 284.043 832.296 282.22L832.304 282.228Z" fill="white"/>
</g>
<defs>
<radialGradient id="paint0_radial_32_351" cx="0" cy="0" r="1" gradientUnits="userSpaceOnUse" gradientTransform="translate(196.88 202.75) rotate(16.5813) scale(69.2734 69.2782)">
<stop/>
<stop offset="0.21" stop-color="#404040"/>
<stop offset="0.5" stop-color="#919191"/>
<stop offset="0.74" stop-color="#CCCCCC"/>
<stop offset="0.91" stop-color="#F1F1F1"/>
<stop offset="1" stop-color="white"/>
</radialGradient>
<radialGradient id="paint1_radial_32_351" cx="0" cy="0" r="1" gradientUnits="userSpaceOnUse" gradientTransform="translate(688.466 150.891) rotate(-8.5507) scale(90.4706 90.4778)">
<stop/>
<stop offset="0.21" stop-color="#404040"/>
<stop offset="0.5" stop-color="#919191"/>
<stop offset="0.74" stop-color="#CCCCCC"/>
<stop offset="0.91" stop-color="#F1F1F1"/>
<stop offset="1" stop-color="white"/>
</radialGradient>
<radialGradient id="paint2_radial_32_351" cx="0" cy="0" r="1" gradientUnits="userSpaceOnUse" gradientTransform="translate(382.813 272.083) rotate(-24.7318) scale(112.342 112.348)">
<stop/>
<stop offset="0.21" stop-color="#404040"/>
<stop offset="0.5" stop-color="#919191"/>
<stop offset="0.74" stop-color="#CCCCCC"/>
<stop offset="0.91" stop-color="#F1F1F1"/>
<stop offset="1" stop-color="white"/>
</radialGradient>
<radialGradient id="paint3_radial_32_351" cx="0" cy="0" r="1" gradientUnits="userSpaceOnUse" gradientTransform="translate(128.098 138.295) rotate(-8.5507) scale(82.2784 82.285)">
<stop/>
<stop offset="0.21" stop-color="#404040"/>
<stop offset="0.5" stop-color="#919191"/>
<stop offset="0.74" stop-color="#CCCCCC"/>
<stop offset="0.91" stop-color="#F1F1F1"/>
<stop offset="1" stop-color="white"/>
</radialGradient>
<radialGradient id="paint4_radial_32_351" cx="0" cy="0" r="1" gradientUnits="userSpaceOnUse" gradientTransform="translate(1024.62 247.61) rotate(6.46054) scale(75.7473 75.7534)">
<stop/>
<stop offset="0.21" stop-color="#404040"/>
<stop offset="0.5" stop-color="#919191"/>
<stop offset="0.74" stop-color="#CCCCCC"/>
<stop offset="0.91" stop-color="#F1F1F1"/>
<stop offset="1" stop-color="white"/>
</radialGradient>
<radialGradient id="paint5_radial_32_351" cx="0" cy="0" r="1" gradientUnits="userSpaceOnUse" gradientTransform="translate(92.4771 309.788) rotate(-29.172) scale(92.4089 92.4129)">
<stop/>
<stop offset="0.21" stop-color="#404040"/>
<stop offset="0.5" stop-color="#919191"/>
<stop offset="0.74" stop-color="#CCCCCC"/>
<stop offset="0.91" stop-color="#F1F1F1"/>
<stop offset="1" stop-color="white"/>
</radialGradient>
<radialGradient id="paint6_radial_32_351" cx="0" cy="0" r="1" gradientUnits="userSpaceOnUse" gradientTransform="translate(300.516 100.91) rotate(1.32011) scale(64.322 64.3273)">
<stop/>
<stop offset="0.21" stop-color="#404040"/>
<stop offset="0.5" stop-color="#919191"/>
<stop offset="0.74" stop-color="#CCCCCC"/>
<stop offset="0.91" stop-color="#F1F1F1"/>
<stop offset="1" stop-color="white"/>
</radialGradient>
<radialGradient id="paint7_radial_32_351" cx="0" cy="0" r="1" gradientUnits="userSpaceOnUse" gradientTransform="translate(1227.63 187.632) rotate(16.5813) scale(95.1628 95.1694)">
<stop/>
<stop offset="0.21" stop-color="#404040"/>
<stop offset="0.5" stop-color="#919191"/>
<stop offset="0.74" stop-color="#CCCCCC"/>
<stop offset="0.91" stop-color="#F1F1F1"/>
<stop offset="1" stop-color="white"/>
</radialGradient>
<radialGradient id="paint8_radial_32_351" cx="0" cy="0" r="1" gradientUnits="userSpaceOnUse" gradientTransform="translate(1149.73 111.64) rotate(-8.5507) scale(82.2784 82.285)">
<stop/>
<stop offset="0.21" stop-color="#404040"/>
<stop offset="0.5" stop-color="#919191"/>
<stop offset="0.74" stop-color="#CCCCCC"/>
<stop offset="0.91" stop-color="#F1F1F1"/>
<stop offset="1" stop-color="white"/>
</radialGradient>
<radialGradient id="paint9_radial_32_351" cx="0" cy="0" r="1" gradientUnits="userSpaceOnUse" gradientTransform="translate(1186.17 340.006) rotate(-12.651) scale(66.5668 66.5717)">
<stop/>
<stop offset="0.21" stop-color="#404040"/>
<stop offset="0.5" stop-color="#919191"/>
<stop offset="0.74" stop-color="#CCCCCC"/>
<stop offset="0.91" stop-color="#F1F1F1"/>
<stop offset="1" stop-color="white"/>
</radialGradient>
<radialGradient id="paint10_radial_32_351" cx="0" cy="0" r="1" gradientUnits="userSpaceOnUse" gradientTransform="translate(597.821 227.955) rotate(-29.172) scale(81.6317 81.6352)">
<stop/>
<stop offset="0.21" stop-color="#404040"/>
<stop offset="0.5" stop-color="#919191"/>
<stop offset="0.74" stop-color="#CCCCCC"/>
<stop offset="0.91" stop-color="#F1F1F1"/>
<stop offset="1" stop-color="white"/>
</radialGradient>
<radialGradient id="paint11_radial_32_351" cx="0" cy="0" r="1" gradientUnits="userSpaceOnUse" gradientTransform="translate(852.453 74.0635) rotate(2.50021) scale(73.7863 73.7924)">
<stop/>
<stop offset="0.21" stop-color="#404040"/>
<stop offset="0.5" stop-color="#919191"/>
<stop offset="0.74" stop-color="#CCCCCC"/>
<stop offset="0.91" stop-color="#F1F1F1"/>
<stop offset="1" stop-color="white"/>
</radialGradient>
<radialGradient id="paint12_radial_32_351" cx="0" cy="0" r="1" gradientUnits="userSpaceOnUse" gradientTransform="translate(485.476 109.109) rotate(-25.3918) scale(74.5896 74.5936)">
<stop/>
<stop offset="0.21" stop-color="#404040"/>
<stop offset="0.5" stop-color="#919191"/>
<stop offset="0.74" stop-color="#CCCCCC"/>
<stop offset="0.91" stop-color="#F1F1F1"/>
<stop offset="1" stop-color="white"/>
</radialGradient>
<radialGradient id="paint13_radial_32_351" cx="0" cy="0" r="1" gradientUnits="userSpaceOnUse" gradientTransform="translate(925.913 119.362) rotate(-25.3918) scale(83.4059 83.4103)">
<stop/>
<stop offset="0.21" stop-color="#404040"/>
<stop offset="0.5" stop-color="#919191"/>
<stop offset="0.74" stop-color="#CCCCCC"/>
<stop offset="0.91" stop-color="#F1F1F1"/>
<stop offset="1" stop-color="white"/>
</radialGradient>
<radialGradient id="paint14_radial_32_351" cx="0" cy="0" r="1" gradientUnits="userSpaceOnUse" gradientTransform="translate(802.368 278.346) rotate(10.2008) scale(66.5667 66.5718)">
<stop/>
<stop offset="0.21" stop-color="#404040"/>
<stop offset="0.5" stop-color="#919191"/>
<stop offset="0.74" stop-color="#CCCCCC"/>
<stop offset="0.91" stop-color="#F1F1F1"/>
<stop offset="1" stop-color="white"/>
</radialGradient>
</defs>
</svg>
