<svg width="40" height="39" viewBox="0 0 40 39" fill="none" xmlns="http://www.w3.org/2000/svg">
<path d="M19.792 2.46167C10.4028 2.46167 2.78979 10.0127 2.78979 19.3253C2.78979 28.6379 10.4028 36.1889 19.792 36.1889C29.1811 36.1889 36.7941 28.6379 36.7941 19.3253C36.7941 10.0127 29.1811 2.46167 19.792 2.46167ZM27.9629 15.1734C27.9743 15.3503 27.9743 15.5347 27.9743 15.7154C27.9743 21.2413 23.7313 27.6065 15.9779 27.6065C13.5869 27.6065 11.3706 26.9177 9.50337 25.732C9.84494 25.7696 10.1713 25.7847 10.5205 25.7847C12.4939 25.7847 14.308 25.1222 15.7539 24.0004C13.9019 23.9628 12.3459 22.7582 11.8146 21.102C12.4636 21.1961 13.048 21.1961 13.716 21.0267C12.7623 20.8346 11.9052 20.3209 11.2902 19.5729C10.6751 18.825 10.3401 17.8889 10.3421 16.9237V16.871C10.9 17.1835 11.5565 17.3754 12.2435 17.4018C11.666 17.0201 11.1924 16.5029 10.8647 15.8962C10.537 15.2895 10.3653 14.612 10.3649 13.9237C10.3649 13.1445 10.5698 12.433 10.9379 11.8157C11.9964 13.1081 13.3172 14.1651 14.8145 14.918C16.3118 15.671 17.9521 16.103 19.6288 16.186C19.0329 13.344 21.1734 11.0441 23.7465 11.0441C24.9609 11.0441 26.0539 11.5485 26.8243 12.3615C27.7769 12.1846 28.6877 11.8308 29.4999 11.3565C29.1849 12.3239 28.5245 13.1407 27.6479 13.6564C28.498 13.5661 29.3177 13.3327 30.0768 13.0052C29.5037 13.8409 28.7864 14.5824 27.9629 15.1734Z" fill="white"/>
</svg>
