<svg width="33" height="33" viewBox="0 0 33 33" fill="none" xmlns="http://www.w3.org/2000/svg">
<path d="M28.6234 11.7164L20.7675 10.5747L17.2557 3.45518C17.1598 3.26025 17.002 3.10245 16.8071 3.00654C16.3182 2.7652 15.7241 2.96631 15.4797 3.45518L11.9679 10.5747L4.11201 11.7164C3.89542 11.7473 3.6974 11.8495 3.54579 12.0042C3.3625 12.1925 3.2615 12.446 3.26498 12.7088C3.26846 12.9716 3.37614 13.2223 3.56435 13.4058L9.2482 18.9473L7.90536 26.7723C7.87387 26.9543 7.89402 27.1415 7.96351 27.3127C8.033 27.4838 8.14906 27.6321 8.29853 27.7406C8.44799 27.8492 8.62489 27.9137 8.80915 27.9268C8.99341 27.94 9.17767 27.9012 9.34102 27.815L16.3677 24.1206L23.3944 27.815C23.5862 27.9171 23.809 27.9511 24.0225 27.914C24.5609 27.8212 24.9229 27.3106 24.8301 26.7723L23.4872 18.9473L29.1711 13.4058C29.3258 13.2542 29.4279 13.0561 29.4588 12.8396C29.5424 12.2981 29.1649 11.7969 28.6234 11.7164Z" fill="black"/>
</svg>
