<svg width="165" height="44" viewBox="0 0 165 44" fill="none" xmlns="http://www.w3.org/2000/svg">
<ellipse cx="20.7289" cy="20.7286" rx="18.1376" ry="18.1376" fill="url(#paint0_linear_22_41)"/>
<path d="M27.4834 27.934L28.289 22.8147H23.2489V19.4941C23.2489 18.0932 23.9517 16.7269 26.2091 16.7269H28.502V12.3686C28.502 12.3686 26.4221 12.0227 24.4344 12.0227C20.2816 12.0227 17.5698 14.4751 17.5698 18.913V22.8147H12.9556V27.934H17.5698V40.3102C18.4962 40.452 19.4439 40.5246 20.4094 40.5246C21.3748 40.5246 22.3225 40.452 23.2489 40.3102V27.934H27.4834Z" fill="white"/>
<path d="M101.052 20.7286C101.052 30.7405 92.9359 38.8662 82.9149 38.8662C72.8939 38.8662 64.7773 30.7405 64.7773 20.7286C64.7773 10.7076 72.8939 2.59106 82.9149 2.59106C92.9359 2.59106 101.052 10.7076 101.052 20.7286Z" fill="#283544"/>
<path d="M91.416 16.139C91.317 16.1967 88.9609 17.4152 88.9609 20.1169C89.0719 23.198 91.9342 24.2785 91.9833 24.2785C91.9342 24.3363 91.5511 25.7505 90.4165 27.2329C89.5161 28.5099 88.5167 29.7974 86.999 29.7974C85.5554 29.7974 85.0372 28.9463 83.3715 28.9463C81.5827 28.9463 81.0766 29.7974 79.707 29.7974C78.1893 29.7974 77.1159 28.4409 76.1664 27.1759C74.9328 25.5203 73.8843 22.9221 73.8473 20.4273C73.8223 19.1054 74.0943 17.8059 74.7847 16.7021C75.7592 15.1612 77.4989 14.1152 79.3988 14.0807C80.8545 14.0349 82.15 15.012 83.0384 15.012C83.8897 15.012 85.4814 14.0807 87.2823 14.0807C88.0596 14.0814 90.1325 14.2996 91.416 16.139ZM82.9153 13.8167C82.6562 12.6095 83.3715 11.4022 84.0378 10.6321C84.8892 9.70084 86.2338 9.06873 87.3933 9.06873C87.4674 10.276 86.9982 11.46 86.1598 12.3223C85.4074 13.2536 84.1118 13.9547 82.9153 13.8167Z" fill="white"/>
<path d="M162.41 21.1314C162.41 19.6401 162.287 18.5519 162.02 17.4233H144.643V24.1543H154.843C154.637 25.8271 153.527 28.3462 151.059 30.0389L151.024 30.2643L156.519 34.4354L156.899 34.4726C160.395 31.3086 162.41 26.6533 162.41 21.1314" fill="#4285F4"/>
<path d="M144.642 38.8662C149.639 38.8662 153.834 37.2538 156.898 34.4728L151.058 30.039C149.495 31.1072 147.397 31.8528 144.642 31.8528C139.748 31.8528 135.594 28.6889 134.113 24.3157L133.896 24.3337L128.183 28.6667L128.108 28.8702C131.152 34.7951 137.403 38.8662 144.642 38.8662Z" fill="#34A853"/>
<path d="M134.114 24.3158C133.723 23.1873 133.497 21.978 133.497 20.7286C133.497 19.479 133.723 18.2699 134.093 17.1414L134.083 16.901L128.299 12.4985L128.109 12.5868C126.855 15.0454 126.135 17.8064 126.135 20.7286C126.135 23.6507 126.855 26.4116 128.109 28.8703L134.114 24.3158" fill="#FBBC05"/>
<path d="M144.642 9.60421C148.117 9.60421 150.462 11.0754 151.798 12.3048L157.022 7.30683C153.814 4.38468 149.639 2.59106 144.642 2.59106C137.403 2.59106 131.152 6.66191 128.108 12.5868L134.093 17.1414C135.594 12.7682 139.748 9.60421 144.642 9.60421" fill="#EB4335"/>
<defs>
<linearGradient id="paint0_linear_22_41" x1="20.7289" y1="2.59106" x2="20.7289" y2="38.7586" gradientUnits="userSpaceOnUse">
<stop stop-color="#18ACFE"/>
<stop offset="1" stop-color="#0163E0"/>
</linearGradient>
</defs>
</svg>
