<svg width="17" height="17" viewBox="0 0 17 17" fill="none" xmlns="http://www.w3.org/2000/svg">
<g clip-path="url(#clip0_30_140)">
<path d="M8.37061 5.80764L10.8041 8.24118L10.8157 8.11371C10.8157 6.83512 9.77666 5.79605 8.49808 5.79605L8.37061 5.80764Z" fill="#143F41"/>
<path d="M8.49801 4.25098C10.6302 4.25098 12.3608 5.98151 12.3608 8.11375C12.3608 8.61204 12.2604 9.08716 12.0865 9.52364L14.3462 11.7834C15.5128 10.8099 16.4321 9.5507 17 8.11375C15.6596 4.72226 12.3647 2.31961 8.49804 2.31961C7.41646 2.31961 6.38126 2.51274 5.41943 2.86038L7.08815 4.52522C7.52459 4.35527 7.99971 4.25098 8.49801 4.25098Z" fill="#143F41"/>
<path d="M0.77254 2.14574L2.53396 3.90716L2.88548 4.25868C1.61077 5.25527 0.60259 6.58021 0 8.1137C1.33653 11.5052 4.63531 13.9078 8.49808 13.9078C9.69555 13.9078 10.8389 13.6761 11.8857 13.255L12.2141 13.5834L14.4661 15.8392L15.4511 14.8581L1.75754 1.16074L0.77254 2.14574ZM5.04477 6.4141L6.23837 7.60769C6.2036 7.7738 6.18043 7.93988 6.18043 8.1137C6.18043 9.39229 7.2195 10.4314 8.49808 10.4314C8.6719 10.4314 8.83801 10.4082 9.00025 10.3734L10.1938 11.567C9.68008 11.8219 9.10842 11.9765 8.49808 11.9765C6.36584 11.9765 4.63531 10.2459 4.63531 8.1137C4.63531 7.5034 4.78983 6.9317 5.04477 6.4141Z" fill="#143F41"/>
</g>
<defs>
<clipPath id="clip0_30_140">
<rect width="17" height="17" fill="white"/>
</clipPath>
</defs>
</svg>
