<svg width="64" height="61" viewBox="0 0 64 61" fill="none" xmlns="http://www.w3.org/2000/svg">
<path d="M32.0002 48.8C25.3335 48.8 19.4402 45.5467 16.0002 40.6667C16.0802 35.5833 26.6668 32.7875 32.0002 32.7875C37.3335 32.7875 47.9202 35.5833 48.0002 40.6667C46.2372 43.1687 43.8558 45.2192 41.0657 46.6375C38.2755 48.0558 35.1623 48.7984 32.0002 48.8ZM32.0002 12.7083C34.1219 12.7083 36.1567 13.5117 37.657 14.9416C39.1573 16.3716 40.0002 18.3111 40.0002 20.3333C40.0002 22.3556 39.1573 24.2951 37.657 25.725C36.1567 27.155 34.1219 27.9583 32.0002 27.9583C29.8784 27.9583 27.8436 27.155 26.3433 25.725C24.843 24.2951 24.0002 22.3556 24.0002 20.3333C24.0002 18.3111 24.843 16.3716 26.3433 14.9416C27.8436 13.5117 29.8784 12.7083 32.0002 12.7083ZM32.0002 5.08333C28.4982 5.08333 25.0306 5.74075 21.7953 7.01806C18.5599 8.29536 15.6202 10.1675 13.144 12.5277C8.14301 17.2942 5.3335 23.7591 5.3335 30.5C5.3335 37.2409 8.14301 43.7057 13.144 48.4723C15.6202 50.8324 18.5599 52.7046 21.7953 53.9819C25.0306 55.2592 28.4982 55.9167 32.0002 55.9167C39.0726 55.9167 45.8554 53.2388 50.8563 48.4723C55.8573 43.7057 58.6668 37.2409 58.6668 30.5C58.6668 16.4446 46.6668 5.08333 32.0002 5.08333Z" fill="black"/>
</svg>
