<svg width="44" height="52" viewBox="0 0 44 52" fill="none" xmlns="http://www.w3.org/2000/svg">
<g clip-path="url(#clip0_10_7)">
<path fill-rule="evenodd" clip-rule="evenodd" d="M14.6669 4.33331C13.2082 4.33331 11.8092 5.01813 10.7778 6.23712C9.74633 7.45611 9.16687 9.10941 9.16687 10.8333C9.16687 12.5572 9.74633 14.2105 10.7778 15.4295C11.8092 16.6485 13.2082 17.3333 14.6669 17.3333C16.1256 17.3333 17.5245 16.6485 18.556 15.4295C19.5874 14.2105 20.1669 12.5572 20.1669 10.8333C20.1669 9.10941 19.5874 7.45611 18.556 6.23712C17.5245 5.01813 16.1256 4.33331 14.6669 4.33331ZM12.8335 10.8333C12.8335 10.2587 13.0267 9.70758 13.3705 9.30125C13.7143 8.89492 14.1806 8.66665 14.6669 8.66665C15.1531 8.66665 15.6194 8.89492 15.9632 9.30125C16.307 9.70758 16.5002 10.2587 16.5002 10.8333C16.5002 11.4079 16.307 11.959 15.9632 12.3654C15.6194 12.7717 15.1531 13 14.6669 13C14.1806 13 13.7143 12.7717 13.3705 12.3654C13.0267 11.959 12.8335 11.4079 12.8335 10.8333ZM29.3335 4.33331C27.8748 4.33331 26.4759 5.01813 25.4444 6.23712C24.413 7.45611 23.8335 9.10941 23.8335 10.8333C23.8335 12.5572 24.413 14.2105 25.4444 15.4295C26.4759 16.6485 27.8748 17.3333 29.3335 17.3333C30.7922 17.3333 32.1912 16.6485 33.2226 15.4295C34.2541 14.2105 34.8335 12.5572 34.8335 10.8333C34.8335 9.10941 34.2541 7.45611 33.2226 6.23712C32.1912 5.01813 30.7922 4.33331 29.3335 4.33331ZM27.5002 10.8333C27.5002 10.2587 27.6934 9.70758 28.0372 9.30125C28.381 8.89492 28.8473 8.66665 29.3335 8.66665C29.8198 8.66665 30.2861 8.89492 30.6299 9.30125C30.9737 9.70758 31.1669 10.2587 31.1669 10.8333C31.1669 11.4079 30.9737 11.959 30.6299 12.3654C30.2861 12.7717 29.8198 13 29.3335 13C28.8473 13 28.381 12.7717 28.0372 12.3654C27.6934 11.959 27.5002 11.4079 27.5002 10.8333ZM7.52237 24.2255C7.47626 23.6258 7.53641 23.0213 7.69899 22.4506C7.86156 21.88 8.123 21.3556 8.46661 20.911C8.81023 20.4663 9.22848 20.1112 9.6947 19.8683C10.1609 19.6254 10.6648 19.4999 11.1744 19.5H18.1594C18.6689 19.4999 19.1728 19.6254 19.639 19.8683C20.1053 20.1112 20.5235 20.4663 20.8671 20.911C21.2107 21.3556 21.4722 21.88 21.6348 22.4506C21.7973 23.0213 21.8575 23.6258 21.8114 24.2255L20.1595 45.6971C20.1179 46.2355 19.9075 46.7359 19.5697 47.1003C19.2318 47.4647 18.7909 47.6667 18.3335 47.6666H11.0002C10.5425 47.6667 10.1014 47.4644 9.76349 47.0995C9.4256 46.7347 9.2154 46.2337 9.1742 45.695L7.52237 24.2255ZM11.1744 23.8333L12.674 43.3333H16.6597L18.1594 23.8333H11.1744ZM27.1702 19.5C26.3225 19.5001 25.5011 19.8473 24.8456 20.4825C24.1902 21.1177 23.7412 22.0016 23.575 22.984L22.035 32.0753C21.9819 32.3897 21.9884 32.7141 22.0542 33.0252C22.1199 33.3362 22.2433 33.6262 22.4153 33.8741C22.5874 34.1219 22.8038 34.3216 23.0491 34.4587C23.2943 34.5957 23.5622 34.6668 23.8335 34.6666V45.5C23.8335 46.0746 24.0267 46.6257 24.3705 47.032C24.7143 47.4384 25.1806 47.6666 25.6669 47.6666H33.0002C33.4864 47.6666 33.9528 47.4384 34.2966 47.032C34.6404 46.6257 34.8335 46.0746 34.8335 45.5V34.6666C35.1047 34.6665 35.3724 34.5952 35.6174 34.458C35.8624 34.3208 36.0787 34.1211 36.2505 33.8732C36.4223 33.6254 36.5455 33.3355 36.6112 33.0247C36.6769 32.7138 36.6833 32.3895 36.6302 32.0753L35.0939 22.984C34.9277 22.0013 34.4784 21.117 33.8226 20.4818C33.1667 19.8465 32.3448 19.4996 31.4969 19.5H27.1702ZM27.5002 32.5C27.5004 32.0061 27.3578 31.527 27.096 31.1421C26.8343 30.7571 26.4691 30.4893 26.061 30.3831L27.1702 23.8333H31.4969L32.606 30.3831C32.1979 30.4893 31.8328 30.7571 31.571 31.1421C31.3093 31.527 31.1667 32.0061 31.1669 32.5V43.3333H27.5002V32.5Z" fill="white"/>
</g>
<defs>
<clipPath id="clip0_10_7">
<rect width="44" height="52" fill="white"/>
</clipPath>
</defs>
</svg>
