<svg width="27" height="24" viewBox="0 0 27 24" fill="none" xmlns="http://www.w3.org/2000/svg">
<path d="M25.3585 8.36897L17.5026 7.28465L13.9908 0.523071C13.8949 0.337943 13.7371 0.188077 13.5422 0.0969826C13.0533 -0.132223 12.4592 0.0587816 12.2148 0.523071L8.70302 7.28465L0.847114 8.36897C0.630528 8.39835 0.432506 8.49532 0.280895 8.64225C0.0976065 8.82117 -0.00339394 9.06187 8.70861e-05 9.31148C0.00356811 9.56108 0.111246 9.79916 0.29946 9.97341L5.98331 15.2363L4.64047 22.6679C4.60898 22.8408 4.62913 23.0186 4.69862 23.1811C4.76811 23.3437 4.88417 23.4845 5.03363 23.5876C5.1831 23.6907 5.35999 23.7519 5.54426 23.7644C5.72852 23.7769 5.91277 23.7401 6.07613 23.6582L13.1028 20.1496L20.1295 23.6582C20.3213 23.7551 20.5441 23.7875 20.7576 23.7522C21.296 23.6641 21.658 23.1792 21.5652 22.6679L20.2223 15.2363L25.9062 9.97341C26.0609 9.82942 26.163 9.64135 26.1939 9.43565C26.2775 8.92141 25.9 8.44537 25.3585 8.36897Z" fill="#E79924"/>
</svg>
