<svg width="33" height="28" viewBox="0 0 33 28" fill="none" xmlns="http://www.w3.org/2000/svg">
<path d="M8.73125 18.6941L5.84375 15.1529C7.19583 13.5333 8.78304 12.2503 10.6054 11.3038C12.4277 10.3573 14.3926 9.88345 16.5 9.88235C18.6083 9.88235 20.5737 10.3627 22.396 11.3235C24.2183 12.2843 25.8051 13.5882 27.1562 15.2353L24.2687 18.6941C23.2604 17.4863 22.0917 16.5392 20.7625 15.8529C19.4333 15.1667 18.0125 14.8235 16.5 14.8235C14.9875 14.8235 13.5667 15.1667 12.2375 15.8529C10.9083 16.5392 9.73958 17.4863 8.73125 18.6941ZM2.8875 11.6941L0 8.23529C2.10833 5.6549 4.57188 3.63725 7.39062 2.18235C10.2094 0.727451 13.2458 0 16.5 0C19.7542 0 22.7906 0.727451 25.6094 2.18235C28.4281 3.63725 30.8917 5.6549 33 8.23529L30.1125 11.6941C28.3479 9.58039 26.3024 7.9262 23.9759 6.73153C21.6494 5.53686 19.1574 4.94008 16.5 4.94118C13.8417 4.94118 11.3492 5.53851 9.02275 6.73318C6.69625 7.92784 4.65117 9.58149 2.8875 11.6941ZM16.5 28L21.3469 22.1529C20.7281 21.4118 20.0063 20.8282 19.1812 20.4021C18.3562 19.9761 17.4625 19.7636 16.5 19.7647C15.5375 19.7647 14.6438 19.9777 13.8188 20.4038C12.9938 20.8298 12.2719 21.4129 11.6531 22.1529L16.5 28Z" fill="white"/>
</svg>
