<svg width="27" height="24" viewBox="0 0 27 24" fill="none" xmlns="http://www.w3.org/2000/svg">
<path d="M5.05161 22.6679L6.39444 15.2363L0.710593 9.97341C0.522379 9.79916 0.414701 9.56108 0.41122 9.31148C0.407739 9.06187 0.508739 8.82117 0.692028 8.64225M5.05161 22.6679L1.50336 9.34461M5.05161 22.6679C5.02011 22.8408 5.04026 23.0186 5.10975 23.1811L5.05161 22.6679ZM0.692028 8.64225L1.32819 9.29869L1.33179 9.30241L1.33185 9.30247L1.38796 9.36036C1.38699 9.3613 1.38646 9.36164 1.38646 9.36164C1.38646 9.36165 1.38833 9.36048 1.39269 9.35989L1.39498 9.35957L1.50336 9.34461M0.692028 8.64225C0.843639 8.49532 1.04166 8.39835 1.25825 8.36897L0.692028 8.64225ZM1.50336 9.34461L7.07386 14.5026L7.47595 14.8749L7.37851 15.4141L6.05151 22.758L13.0672 19.2549L13.5139 19.0318L13.9607 19.2549L20.9764 22.758L19.6494 15.4141L19.552 14.8749L19.954 14.5026L25.5245 9.34461L17.777 8.27525L17.2647 8.20454L17.0263 7.74556L13.5231 1.00055C13.5219 1.00031 13.5205 1.00014 13.519 1.00006C13.5143 0.999798 13.509 1.00044 13.504 1.00197L10.0016 7.74556L9.76321 8.20454L9.25088 8.27525L1.50336 9.34461Z" stroke="#E79924" stroke-width="2"/>
</svg>
