<svg width="27" height="24" viewBox="0 0 27 24" fill="none" xmlns="http://www.w3.org/2000/svg">
<path d="M5.25668 22.6679L6.59952 15.2363L0.915671 9.97341C0.727457 9.79916 0.619779 9.56108 0.616298 9.31148C0.612817 9.06187 0.713817 8.82117 0.897106 8.64225M5.25668 22.6679L1.70844 9.34461M5.25668 22.6679C5.22519 22.8408 5.24534 23.0186 5.31483 23.1811L5.25668 22.6679ZM0.897106 8.64225L1.53327 9.29869L1.53687 9.30241L1.53693 9.30247L1.59303 9.36036C1.59207 9.3613 1.59153 9.36164 1.59154 9.36164C1.59154 9.36165 1.59341 9.36048 1.59777 9.35989L1.60006 9.35957L1.70844 9.34461M0.897106 8.64225C1.04872 8.49532 1.24674 8.39835 1.46333 8.36897L0.897106 8.64225ZM1.70844 9.34461L7.27893 14.5026L7.68102 14.8749L7.58358 15.4141L6.25659 22.758L13.2723 19.2549L13.719 19.0318L14.1658 19.2549L21.1815 22.758L19.8545 15.4141L19.757 14.8749L20.1591 14.5026L25.7296 9.34461L17.9821 8.27525L17.4698 8.20454L17.2314 7.74556L13.7282 1.00055C13.7269 1.00031 13.7256 1.00014 13.7241 1.00006C13.7194 0.999798 13.714 1.00044 13.7091 1.00197L10.2067 7.74556L9.96829 8.20454L9.45596 8.27525L1.70844 9.34461Z" stroke="#E79924" stroke-width="2"/>
</svg>
