<svg width="31" height="32" viewBox="0 0 31 32" fill="none" xmlns="http://www.w3.org/2000/svg">
<path d="M31 17.6V28.8C31 29.6487 30.5917 30.4626 29.865 31.0627C29.1383 31.6629 28.1527 32 27.125 32C26.0973 32 25.1117 31.6629 24.385 31.0627C23.6583 30.4626 23.25 29.6487 23.25 28.8V20.8H19.375V4.8C19.375 3.52696 19.9874 2.30606 21.0774 1.40589C22.1675 0.505713 23.6459 0 25.1875 0L31 0V17.6ZM3.875 16C2.84729 16 1.86166 15.6629 1.13496 15.0627C0.408258 14.4626 0 13.6487 0 12.8V1.6C0 1.17565 0.204129 0.768687 0.567481 0.468629C0.930832 0.168571 1.42364 0 1.9375 0C2.45136 0 2.94417 0.168571 3.30752 0.468629C3.67087 0.768687 3.875 1.17565 3.875 1.6V8H5.8125V1.6C5.8125 1.17565 6.01663 0.768687 6.37998 0.468629C6.74333 0.168571 7.23614 0 7.75 0C8.26386 0 8.75667 0.168571 9.12002 0.468629C9.48337 0.768687 9.6875 1.17565 9.6875 1.6V8H11.625V1.6C11.625 1.17565 11.8291 0.768687 12.1925 0.468629C12.5558 0.168571 13.0486 0 13.5625 0C14.0764 0 14.5692 0.168571 14.9325 0.468629C15.2959 0.768687 15.5 1.17565 15.5 1.6V12.8C15.5 13.6487 15.0917 14.4626 14.365 15.0627C13.6383 15.6629 12.6527 16 11.625 16V28.8C11.625 29.6487 11.2167 30.4626 10.49 31.0627C9.76334 31.6629 8.77771 32 7.75 32C6.72229 32 5.73666 31.6629 5.00996 31.0627C4.28326 30.4626 3.875 29.6487 3.875 28.8V16Z" fill="white"/>
</svg>
