<svg width="28" height="24" viewBox="0 0 28 24" fill="none" xmlns="http://www.w3.org/2000/svg">
<path d="M5.46274 22.6679L6.80557 15.2363L1.12173 9.97341C0.933511 9.79916 0.825834 9.56108 0.822353 9.31148C0.818872 9.06187 0.919872 8.82117 1.10316 8.64225M5.46274 22.6679L1.9145 9.34461M5.46274 22.6679C5.43125 22.8408 5.45139 23.0186 5.52088 23.1811L5.46274 22.6679ZM1.10316 8.64225L1.73932 9.29869L1.74292 9.30241L1.74298 9.30247L1.79909 9.36036C1.79812 9.3613 1.79759 9.36164 1.79759 9.36164C1.79759 9.36165 1.79947 9.36048 1.80382 9.35989L1.80611 9.35957L1.9145 9.34461M1.10316 8.64225C1.25477 8.49532 1.45279 8.39835 1.66938 8.36897L1.10316 8.64225ZM1.9145 9.34461L7.48499 14.5026L7.88708 14.8749L7.78964 15.4141L6.46265 22.758L13.4783 19.2549L13.9251 19.0318L14.3718 19.2549L21.3875 22.758L20.0605 15.4141L19.9631 14.8749L20.3652 14.5026L25.9357 9.34461L18.1882 8.27525L17.6758 8.20454L17.4374 7.74556L13.9342 1.00055C13.933 1.00031 13.9316 1.00014 13.9301 1.00006C13.9255 0.999798 13.9201 1.00044 13.9152 1.00197L10.4127 7.74556L10.1743 8.20454L9.66201 8.27525L1.9145 9.34461Z" stroke="#E79924" stroke-width="2"/>
</svg>
