<svg width="27" height="24" viewBox="0 0 27 24" fill="none" xmlns="http://www.w3.org/2000/svg">
<path d="M4.84555 22.6679L6.18839 15.2363L0.504538 9.97341C0.316324 9.79916 0.208646 9.56108 0.205165 9.31148C0.201684 9.06187 0.302685 8.82117 0.485973 8.64225M4.84555 22.6679L1.29731 9.34461M4.84555 22.6679C4.81406 22.8408 4.8342 23.0186 4.90369 23.1811L4.84555 22.6679ZM0.485973 8.64225L1.12213 9.29869L1.12574 9.30241L1.12579 9.30247L1.1819 9.36036C1.18093 9.3613 1.1804 9.36164 1.1804 9.36164C1.18041 9.36165 1.18228 9.36048 1.18664 9.35989L1.18892 9.35957L1.29731 9.34461M0.485973 8.64225C0.637584 8.49532 0.835606 8.39835 1.05219 8.36897L0.485973 8.64225ZM1.29731 9.34461L6.8678 14.5026L7.26989 14.8749L7.17245 15.4141L5.84546 22.758L12.8612 19.2549L13.3079 19.0318L13.7546 19.2549L20.7703 22.758L19.4433 15.4141L19.3459 14.8749L19.748 14.5026L25.3185 9.34461L17.571 8.27525L17.0586 8.20454L16.8203 7.74556L13.3171 1.00055C13.3158 1.00031 13.3145 1.00014 13.3129 1.00006C13.3083 0.999798 13.3029 1.00044 13.298 1.00197L9.79554 7.74556L9.55716 8.20454L9.04482 8.27525L1.29731 9.34461Z" stroke="#E79924" stroke-width="2"/>
</svg>
