<svg width="27" height="24" viewBox="0 0 27 24" fill="none" xmlns="http://www.w3.org/2000/svg">
<path d="M4.64047 22.6679L5.98331 15.2363L0.29946 9.97341C0.111246 9.79916 0.00356811 9.56108 8.70861e-05 9.31148C-0.00339394 9.06187 0.0976065 8.82117 0.280895 8.64225M4.64047 22.6679L1.09223 9.34461M4.64047 22.6679C4.60898 22.8408 4.62913 23.0186 4.69862 23.1811L4.64047 22.6679ZM0.280895 8.64225L0.917056 9.29869L0.920657 9.30241L0.920715 9.30247L0.976823 9.36036C0.975854 9.3613 0.975323 9.36164 0.975325 9.36164C0.975329 9.36165 0.9772 9.36048 0.981559 9.35989L0.983844 9.35957L1.09223 9.34461M0.280895 8.64225C0.432506 8.49532 0.630528 8.39835 0.847114 8.36897L0.280895 8.64225ZM1.09223 9.34461L6.66272 14.5026L7.06481 14.8749L6.96737 15.4141L5.64038 22.758L12.6561 19.2549L13.1028 19.0318L13.5495 19.2549L20.5653 22.758L19.2383 15.4141L19.1408 14.8749L19.5429 14.5026L25.1134 9.34461L17.3659 8.27525L16.8536 8.20454L16.6152 7.74556L13.112 1.00055C13.1107 1.00031 13.1094 1.00014 13.1079 1.00006C13.1032 0.999798 13.0978 1.00044 13.0929 1.00197L9.59046 7.74556L9.35208 8.20454L8.83975 8.27525L1.09223 9.34461Z" stroke="#E79924" stroke-width="2"/>
</svg>
